<svg xmlns="http://www.w3.org/2000/svg" version="1.1" xmlns:xlink="http://www.w3.org/1999/xlink" xmlns:svgjs="http://svgjs.dev/svgjs" width="1440" height="560" preserveAspectRatio="none" viewBox="0 0 1440 560"><g mask="url(&quot;#SvgjsMask1000&quot;)" fill="none"><rect width="1440" height="560" x="0" y="0" fill="#0e2a47"></rect><path d="M 0,59 C 57.6,99.8 172.8,251.4 288,263 C 403.2,274.6 460.8,134.2 576,117 C 691.2,99.8 748.8,184 864,177 C 979.2,170 1036.8,81.6 1152,82 C 1267.2,82.4 1382.4,159.6 1440,179L1440 560L0 560z" fill="#184a7e"></path><path d="M 0,430 C 96,413.6 288,333.6 480,348 C 672,362.4 768,493.4 960,502 C 1152,510.6 1344,413.2 1440,391L1440 560L0 560z" fill="#2264ab"></path></g><defs><mask id="SvgjsMask1000"><rect width="1440" height="560" fill="#ffffff"></rect></mask></defs></svg>